<svg width="113" height="113" viewBox="0 0 113 113" fill="none" xmlns="http://www.w3.org/2000/svg">
<path d="M95.8793 61.4241C95.8793 83.356 78.0693 101.135 56.0993 101.135C34.1294 101.135 16.3193 83.356 16.3193 61.4241C16.3193 39.4922 34.1294 21.7129 56.0993 21.7129C78.0693 21.7129 95.8793 39.4922 95.8793 61.4241ZM90.1965 61.4241C90.1965 42.6253 74.9307 27.3859 56.0993 27.3859C37.268 27.3859 22.0022 42.6253 22.0022 61.4241C22.0022 80.2228 37.268 95.4623 56.0993 95.4623C74.9307 95.4623 90.1965 80.2228 90.1965 61.4241Z" fill="#7D8FA7" style="fill:#7D8FA7;fill:color(display-p3 0.4902 0.5608 0.6549);fill-opacity:1;"/>
<path fill-rule="evenodd" clip-rule="evenodd" d="M90.1965 61.4241C90.1965 42.6253 74.9307 27.3859 56.0993 27.3859C37.268 27.3859 22.0022 42.6253 22.0022 61.4241C22.0022 80.2228 37.268 95.4623 56.0993 95.4623C74.9307 95.4623 90.1965 80.2228 90.1965 61.4241Z" fill="white" style="fill:white;fill-opacity:1;"/>
<path d="M72.5834 70.4076C71.0077 70.402 69.6465 70.0384 68.5 69.3166C67.3535 68.5949 66.4696 67.5547 65.8483 66.1959C65.2271 64.8372 64.9192 63.2078 64.9249 61.3077C64.9306 59.402 65.2412 57.7839 65.8568 56.4533C66.4781 55.1227 67.3592 54.1106 68.5 53.4172C69.6465 52.7237 71.0077 52.377 72.5834 52.377C74.1592 52.377 75.5203 52.7265 76.6668 53.4256C77.8134 54.1191 78.6973 55.1311 79.3185 56.4618C79.9398 57.7923 80.2476 59.4077 80.242 61.3077C80.242 63.219 79.9313 64.8541 79.31 66.2128C78.6888 67.5716 77.8048 68.6119 76.6584 69.3335C75.5175 70.0496 74.1592 70.4076 72.5834 70.4076ZM72.5834 66.585C73.3968 66.585 74.0631 66.1621 74.5828 65.3163C75.108 64.4651 75.3678 63.1288 75.3621 61.3077C75.3621 60.118 75.2436 59.1455 75.0064 58.3899C74.7692 57.6345 74.4416 57.0763 74.0236 56.7155C73.6057 56.349 73.1256 56.1657 72.5834 56.1657C71.7701 56.1657 71.1065 56.5773 70.5925 57.4004C70.0786 58.2237 69.816 59.526 69.8046 61.3077C69.7991 62.5199 69.9148 63.5179 70.152 64.3016C70.3892 65.0796 70.7168 65.6547 71.1348 66.0268C71.5584 66.3989 72.0412 66.585 72.5834 66.585Z" fill="#74859C" style="fill:#74859C;fill:color(display-p3 0.4566 0.5223 0.6100);fill-opacity:1;"/>
<path d="M55.8734 70.4076C54.2976 70.402 52.9366 70.0384 51.79 69.3166C50.6434 68.5949 49.7596 67.5547 49.1383 66.1959C48.517 64.8372 48.2092 63.2078 48.2149 61.3077C48.2205 59.402 48.5312 57.7839 49.1468 56.4533C49.768 55.1227 50.6491 54.1106 51.79 53.4172C52.9366 52.7237 54.2976 52.377 55.8734 52.377C57.4492 52.377 58.8103 52.7265 59.9568 53.4256C61.1033 54.1191 61.9872 55.1311 62.6085 56.4618C63.2298 57.7923 63.5376 59.4077 63.5319 61.3077C63.5319 63.219 63.2213 64.8541 62.6001 66.2128C61.9788 67.5716 61.0949 68.6119 59.9483 69.3335C58.8075 70.0496 57.4492 70.4076 55.8734 70.4076ZM55.8734 66.585C56.6867 66.585 57.3532 66.1621 57.8728 65.3163C58.398 64.4651 58.6579 63.1288 58.6522 61.3077C58.6522 60.118 58.5336 59.1455 58.2963 58.3899C58.0591 57.6345 57.7315 57.0763 57.3136 56.7155C56.8957 56.349 56.4156 56.1657 55.8734 56.1657C55.0602 56.1657 54.3965 56.5773 53.8825 57.4004C53.3686 58.2237 53.1059 59.526 53.0947 61.3077C53.089 62.5199 53.2048 63.5179 53.442 64.3016C53.6792 65.0796 54.0068 65.6547 54.4247 66.0268C54.8483 66.3989 55.3312 66.585 55.8734 66.585Z" fill="#74859C" style="fill:#74859C;fill:color(display-p3 0.4566 0.5223 0.6100);fill-opacity:1;"/>
<path d="M40.0197 70.1703C38.6869 70.1703 37.5036 69.9363 36.4701 69.4683C35.4422 68.9947 34.6317 68.3436 34.0386 67.5148C33.4513 66.6859 33.1519 65.7331 33.1406 64.6562H37.7154C37.7324 65.2539 37.9639 65.7304 38.4101 66.0855C38.8619 66.4407 39.3985 66.6183 40.0197 66.6183C40.4998 66.6183 40.9234 66.5169 41.2905 66.3139C41.6576 66.1052 41.9456 65.8121 42.1547 65.4343C42.3636 65.0565 42.4653 64.6167 42.4596 64.115C42.4653 63.6075 42.3636 63.1677 42.1547 62.7957C41.9456 62.4179 41.6576 62.1275 41.2905 61.9245C40.9234 61.716 40.4998 61.6116 40.0197 61.6116C39.5227 61.6116 39.0624 61.7329 38.6388 61.9754C38.2209 62.2122 37.9131 62.542 37.7154 62.9649L33.5812 62.1529L34.2589 52.6133H45.9161V56.3683H38.1221L37.7832 60.1909H37.8849C38.156 59.6666 38.6247 59.2324 39.2912 58.8885C39.9577 58.5389 40.7313 58.3642 41.6124 58.3642C42.646 58.3642 43.5666 58.6038 44.3743 59.0829C45.1876 59.5622 45.8286 60.2247 46.2973 61.0704C46.7718 61.9105 47.0061 62.8802 47.0005 63.9797C47.0061 65.1862 46.7181 66.2575 46.1364 67.1934C45.5603 68.1237 44.7498 68.8538 43.7049 69.3838C42.6601 69.9082 41.4317 70.1703 40.0197 70.1703Z" fill="#74859C" style="fill:#74859C;fill:color(display-p3 0.4566 0.5223 0.6100);fill-opacity:1;"/>
<path d="M35.3843 4.09401C36.5657 3.43315 38.0606 3.85302 38.7227 5.03234L44.069 14.5555C44.7308 15.7346 44.3098 17.2258 43.129 17.8869C41.9477 18.5479 40.4529 18.1279 39.7908 16.9486L34.4432 7.42658C33.781 6.24719 34.2029 4.75505 35.3843 4.09401ZM73.4772 5.03234C74.1394 3.85295 75.6341 3.43296 76.8156 4.09401C77.9969 4.75505 78.4176 6.24719 77.7555 7.42658L72.4091 16.9486C71.747 18.1279 70.2522 18.5479 69.0708 17.8869C67.8898 17.2258 67.469 15.7347 68.1308 14.5555L73.4772 5.03234ZM53.6471 14.1467V2.44803C53.6471 1.09617 54.7452 0.00024222 56.0994 0C57.4536 0 58.5516 1.09602 58.5516 2.44803V14.1467C58.5515 15.4986 57.4536 16.5947 56.0994 16.5947C54.7452 16.5945 53.6472 15.4985 53.6471 14.1467Z" fill="#7D8FA7" style="fill:#7D8FA7;fill:color(display-p3 0.4902 0.5608 0.6549);fill-opacity:1;"/>
</svg>
