<svg width="16" height="16" viewBox="0 0 16 16" fill="none" xmlns="http://www.w3.org/2000/svg">
<g clip-path="url(#clip0_4141_19607)">
<path d="M3.27957 8.05686V12.7229L3.28283 12.7893C3.29802 12.9418 3.36554 13.0855 3.47489 13.1949C3.59988 13.3197 3.76956 13.3902 3.94624 13.3902H11.9462C12.1229 13.3901 12.2926 13.3198 12.4176 13.1949C12.5425 13.0699 12.6128 12.9002 12.6129 12.7235V8.05686H3.27957ZM9.27957 9.39019C9.64765 9.39032 9.94624 9.68875 9.94624 10.0569C9.94606 10.4248 9.64754 10.7234 9.27957 10.7235H6.61291C6.24483 10.7235 5.94642 10.4249 5.94624 10.0569C5.94624 9.68867 6.24472 9.39019 6.61291 9.39019H9.27957ZM11.0061 2.61155L10.5472 3.66428C10.5481 3.66586 10.5494 3.66726 10.5504 3.66884C10.7766 4.03047 10.8814 4.45512 10.8492 4.88043C10.8172 5.30306 10.6508 5.70382 10.3759 6.02626L10.3766 6.02691L10.0087 6.46441L10.1819 6.72353H12.0491L13.3857 3.54188V3.54123L11.0061 2.61089V2.61155ZM5.31148 2.73785C5.182 2.76461 5.06362 2.82971 4.97098 2.92405C4.88372 3.0129 4.82429 3.12443 4.79715 3.24566L4.7047 4.47287C4.68312 4.76016 4.47919 5.00146 4.1995 5.07053L3.0771 5.34722C2.94942 5.38807 2.83668 5.46665 2.75418 5.57248C2.67007 5.68047 2.62112 5.81207 2.61421 5.94879C2.60735 6.08547 2.64297 6.22092 2.71577 6.33681C2.78865 6.45277 2.89552 6.54346 3.02176 6.59657H3.02111L3.33101 6.72353H8.58556C8.46403 6.48718 8.49228 6.19844 8.66629 5.9911L9.35509 5.17014L9.3603 5.16428C9.45298 5.05646 9.50908 4.92129 9.51981 4.77951C9.53047 4.63784 9.49553 4.49633 9.4202 4.37587C9.34481 4.25533 9.2327 4.16199 9.10054 4.10959C8.96838 4.05721 8.82266 4.04873 8.68517 4.08485C8.67245 4.08819 8.65966 4.09139 8.64676 4.09397L7.43322 4.33615C7.17759 4.38723 6.91558 4.28489 6.76265 4.07379L6.01265 3.03733C6.00827 3.03128 6.0038 3.02529 5.99963 3.0191C5.92577 2.90934 5.82068 2.82364 5.69819 2.77365C5.57576 2.72373 5.44097 2.71113 5.31148 2.73785ZM13.9462 12.7235C13.9462 13.2538 13.7353 13.7626 13.3603 14.1376C12.9853 14.5126 12.4766 14.7235 11.9462 14.7235H3.94624C3.41581 14.7235 2.9066 14.5127 2.53153 14.1376C2.15656 13.7626 1.94633 13.2538 1.94624 12.7235V8.06077C1.94569 7.88695 1.97899 7.71461 2.04455 7.5536V7.55295C1.86534 7.41197 1.7096 7.24173 1.58687 7.04644C1.3682 6.6985 1.26207 6.2915 1.28283 5.88108C1.3036 5.47078 1.45022 5.07686 1.70275 4.75282C1.95541 4.42872 2.30199 4.19016 2.69494 4.06988L2.73009 4.06011L3.41108 3.89149L3.47098 3.09527C3.47282 3.07081 3.47623 3.04646 3.48075 3.02235C3.5539 2.63229 3.74174 2.27295 4.01981 1.9898C4.29787 1.70668 4.65395 1.5127 5.0426 1.43251C5.43118 1.35238 5.83475 1.38937 6.2021 1.53928C6.56234 1.6863 6.87128 1.93547 7.09207 2.25543L7.59142 2.94423L8.38504 2.78602C8.74049 2.7001 9.1119 2.71299 9.45926 2.82313L9.78348 2.07899C9.92099 1.76291 10.1755 1.51222 10.4938 1.37977C10.7725 1.2638 11.0813 1.24612 11.3694 1.32769L11.4912 1.36871L11.4918 1.36936L13.872 2.30035H13.8727C14.0382 2.36524 14.1894 2.46277 14.3167 2.58681C14.4439 2.71081 14.545 2.85933 14.6142 3.023C14.6834 3.1867 14.7188 3.36288 14.719 3.54058C14.7192 3.71822 14.6843 3.89435 14.6155 4.05816L13.3896 6.97483C13.4479 7.01671 13.5042 7.06208 13.5556 7.1135C13.8057 7.36355 13.9462 7.70324 13.9462 8.05686V12.7235Z" fill="#94A2B8"/>
</g>
<defs>
<clipPath id="clip0_4141_19607">
<rect width="16" height="16" fill="white"/>
</clipPath>
</defs>
</svg>
