<svg width="16" height="16" viewBox="0 0 16 16" fill="none" xmlns="http://www.w3.org/2000/svg">
<g clip-path="url(#clip0_3601_16548)">
<path d="M3.28006 8.05686V12.7229L3.28332 12.7893C3.29851 12.9418 3.36603 13.0855 3.47537 13.1949C3.60037 13.3197 3.77005 13.3902 3.94673 13.3902H11.9467C12.1234 13.3901 12.2931 13.3198 12.4181 13.1949C12.543 13.0699 12.6133 12.9002 12.6134 12.7235V8.05686H3.28006ZM9.28006 9.39019C9.64814 9.39032 9.94673 9.68875 9.94673 10.0569C9.94655 10.4248 9.64803 10.7234 9.28006 10.7235H6.6134C6.24531 10.7235 5.94691 10.4249 5.94673 10.0569C5.94673 9.68867 6.24521 9.39019 6.6134 9.39019H9.28006ZM11.0066 2.61155L10.5476 3.66428C10.5486 3.66586 10.5499 3.66726 10.5509 3.66884C10.7771 4.03047 10.8819 4.45512 10.8497 4.88043C10.8177 5.30306 10.6513 5.70382 10.3764 6.02626L10.3771 6.02691L10.0092 6.46441L10.1824 6.72353H12.0496L13.3862 3.54188V3.54123L11.0066 2.61089V2.61155ZM5.31196 2.73785C5.18249 2.76461 5.06411 2.82971 4.97147 2.92405C4.88421 3.0129 4.82478 3.12443 4.79764 3.24566L4.70519 4.47287C4.68361 4.76016 4.47968 5.00146 4.19998 5.07053L3.07759 5.34722C2.9499 5.38807 2.83717 5.46665 2.75467 5.57248C2.67056 5.68047 2.62161 5.81207 2.6147 5.94879C2.60784 6.08547 2.64346 6.22092 2.71626 6.33681C2.78914 6.45277 2.89601 6.54346 3.02225 6.59657H3.0216L3.33149 6.72353H8.58605C8.46452 6.48718 8.49276 6.19844 8.66678 5.9911L9.35558 5.17014L9.36079 5.16428C9.45347 5.05646 9.50956 4.92129 9.5203 4.77951C9.53096 4.63784 9.49602 4.49633 9.42069 4.37587C9.3453 4.25533 9.23319 4.16199 9.10103 4.10959C8.96887 4.05721 8.82315 4.04873 8.68566 4.08485C8.67294 4.08819 8.66014 4.09139 8.64725 4.09397L7.43371 4.33615C7.17808 4.38723 6.91606 4.28489 6.76314 4.07379L6.01314 3.03733C6.00876 3.03128 6.00429 3.02529 6.00011 3.0191C5.92626 2.90934 5.82117 2.82364 5.69868 2.77365C5.57625 2.72373 5.44146 2.71113 5.31196 2.73785ZM13.9467 12.7235C13.9466 13.2538 13.7358 13.7626 13.3608 14.1376C12.9858 14.5126 12.4771 14.7235 11.9467 14.7235H3.94673C3.4163 14.7235 2.90709 14.5127 2.53202 14.1376C2.15705 13.7626 1.94681 13.2538 1.94673 12.7235V8.06077C1.94618 7.88695 1.97948 7.71461 2.04504 7.5536V7.55295C1.86583 7.41197 1.71009 7.24173 1.58735 7.04644C1.36869 6.6985 1.26256 6.2915 1.28332 5.88108C1.30409 5.47078 1.45071 5.07686 1.70324 4.75282C1.9559 4.42872 2.30248 4.19016 2.69543 4.06988L2.73058 4.06011L3.41157 3.89149L3.47147 3.09527C3.47331 3.07081 3.47671 3.04646 3.48123 3.02235C3.55439 2.63229 3.74223 2.27295 4.0203 1.9898C4.29836 1.70668 4.65444 1.5127 5.04308 1.43251C5.43167 1.35238 5.83523 1.38937 6.20259 1.53928C6.56282 1.6863 6.87177 1.93547 7.09256 2.25543L7.59191 2.94423L8.38553 2.78602C8.74098 2.7001 9.11239 2.71299 9.45975 2.82313L9.78397 2.07899C9.92148 1.76291 10.176 1.51222 10.4943 1.37977C10.773 1.2638 11.0818 1.24612 11.3699 1.32769L11.4917 1.36871L11.4923 1.36936L13.8725 2.30035H13.8732C14.0386 2.36524 14.1899 2.46277 14.3172 2.58681C14.4444 2.71081 14.5455 2.85933 14.6147 3.023C14.6839 3.1867 14.7193 3.36288 14.7195 3.54058C14.7197 3.71822 14.6848 3.89435 14.616 4.05816L13.3901 6.97483C13.4484 7.01671 13.5047 7.06208 13.5561 7.1135C13.8062 7.36355 13.9467 7.70324 13.9467 8.05686V12.7235Z" fill="#94A2B8"/>
</g>
<defs>
<clipPath id="clip0_3601_16548">
<rect width="16" height="16" fill="white"/>
</clipPath>
</defs>
</svg>
