<svg width="16" height="16" viewBox="0 0 16 16" fill="none" xmlns="http://www.w3.org/2000/svg">
<g clip-path="url(#clip0_4325_18957)">
<path d="M8.57741 13.666C8.76152 13.3472 9.16936 13.2378 9.48821 13.4219C9.80699 13.606 9.91634 14.0139 9.73235 14.3327C9.55682 14.6367 9.30394 14.8889 8.99993 15.0645C8.6959 15.24 8.35099 15.3327 7.99993 15.3327C7.64892 15.3327 7.30392 15.24 6.99993 15.0645C6.69602 14.8889 6.44366 14.6366 6.26816 14.3327C6.08405 14.0138 6.19345 13.606 6.5123 13.4219C6.83108 13.238 7.23837 13.3473 7.42246 13.666C7.48097 13.7673 7.56527 13.8517 7.6666 13.9102C7.7679 13.9686 7.88296 13.9993 7.99993 13.9993C8.11689 13.9993 8.23196 13.9686 8.33327 13.9102C8.4346 13.8517 8.51889 13.7673 8.57741 13.666ZM11.3333 5.33268C11.3333 4.44874 10.9823 3.60101 10.3574 2.97591C9.73223 2.35079 8.88399 1.99935 7.99993 1.99935C7.11594 1.99939 6.26824 2.35083 5.64316 2.97591C5.01809 3.60102 4.6666 4.44867 4.6666 5.33268C4.6666 6.90219 4.4206 7.99815 4.02207 8.8418C3.62843 9.67507 3.10606 10.213 2.66725 10.666H13.3333C12.8935 10.2128 12.3719 9.67452 11.9784 8.8418C11.5798 7.998 11.3333 6.90211 11.3333 5.33268ZM12.6666 5.33268C12.6666 6.76247 12.8905 7.65194 13.1835 8.27214C13.4038 8.73842 13.6753 9.08087 13.9843 9.41602L14.3053 9.75326L14.3196 9.76888C14.4935 9.96 14.6083 10.1974 14.6497 10.4525C14.691 10.7074 14.6577 10.9689 14.5533 11.2051C14.4488 11.4413 14.2776 11.6423 14.0611 11.7832C13.8716 11.9066 13.6541 11.9799 13.4296 11.9961L13.3333 11.9993H2.6666C2.40819 11.9992 2.15515 11.9238 1.93873 11.7826C1.72231 11.6413 1.55145 11.4402 1.4472 11.2038C1.34298 10.9673 1.30977 10.7055 1.3515 10.4505C1.39324 10.1956 1.50816 9.95841 1.68222 9.76758L1.6959 9.7526C2.13886 9.29528 2.52266 8.89383 2.81634 8.27214C3.091 7.6907 3.30498 6.87258 3.33066 5.5944L3.33327 5.33268C3.33327 4.09501 3.82528 2.90772 4.70045 2.03255C5.57556 1.15757 6.76243 0.666059 7.99993 0.666016C9.23757 0.666016 10.4249 1.15743 11.3001 2.03255C12.1752 2.90772 12.6666 4.09501 12.6666 5.33268Z" fill="#94A2B8"/>
</g>
<defs>
<clipPath id="clip0_4325_18957">
<rect width="16" height="16" fill="white"/>
</clipPath>
</defs>
</svg>
