<svg width="16" height="16" viewBox="0 0 16 16" fill="none" xmlns="http://www.w3.org/2000/svg">
<path d="M4.33333 1.99935C4.06812 1.99935 3.81384 2.10478 3.6263 2.29232C3.43877 2.47985 3.33333 2.73413 3.33333 2.99935V10.8913C3.64296 10.7444 3.98409 10.666 4.33333 10.666H12.6667V1.99935H4.33333ZM10.6667 6.66602C11.0349 6.66602 11.3333 6.96449 11.3333 7.33268C11.3333 7.70087 11.0349 7.99935 10.6667 7.99935H5.33333C4.96514 7.99935 4.66667 7.70087 4.66667 7.33268C4.66667 6.96449 4.96514 6.66602 5.33333 6.66602H10.6667ZM9.33333 3.99935C9.70152 3.99935 10 4.29783 10 4.66602C10 5.03421 9.70152 5.33268 9.33333 5.33268H5.33333C4.96514 5.33268 4.66667 5.03421 4.66667 4.66602C4.66667 4.29783 4.96514 3.99935 5.33333 3.99935H9.33333ZM3.33333 12.9993C3.33333 13.2646 3.43877 13.5188 3.6263 13.7064C3.81384 13.8939 4.06812 13.9993 4.33333 13.9993H12.6667V11.9993H4.33333C4.06812 11.9993 3.81384 12.1048 3.6263 12.2923C3.43877 12.4799 3.33333 12.7341 3.33333 12.9993ZM14 13.9993C14 14.353 13.8594 14.692 13.6094 14.9421C13.3593 15.1921 13.0203 15.3327 12.6667 15.3327H4.33333C3.71449 15.3327 3.12118 15.0867 2.68359 14.6491C2.24601 14.2115 2 13.6182 2 12.9993V2.99935C2 2.38051 2.24601 1.78719 2.68359 1.34961C3.12118 0.912024 3.71449 0.666016 4.33333 0.666016H12.6667C13.0203 0.666016 13.3593 0.806592 13.6094 1.05664C13.8594 1.30669 14 1.64573 14 1.99935V13.9993Z" fill="#94A2B8"/>
</svg>
