<svg width="15" height="15" viewBox="0 0 15 15" fill="none" xmlns="http://www.w3.org/2000/svg">
<path d="M5.76855 14.5591C5.32585 14.5591 4.94954 14.3682 4.63965 13.9863L0.339844 8.69043C0.218099 8.54655 0.129557 8.40544 0.0742188 8.26709C0.0244141 8.12874 -0.000488281 7.98486 -0.000488281 7.83545C-0.000488281 7.50342 0.110189 7.22949 0.331543 7.01367C0.552897 6.79785 0.832357 6.68994 1.16992 6.68994C1.55176 6.68994 1.87272 6.85319 2.13281 7.17969L5.73535 11.7451L12.7661 0.605469C12.91 0.384115 13.0594 0.229167 13.2144 0.140625C13.3693 0.0465495 13.563 -0.000488281 13.7954 -0.000488281C14.133 -0.000488281 14.4097 0.104655 14.6255 0.314941C14.8413 0.525228 14.9492 0.79362 14.9492 1.12012C14.9492 1.25293 14.9271 1.38574 14.8828 1.51855C14.8385 1.65137 14.7694 1.78971 14.6753 1.93359L6.90576 13.9531C6.64014 14.3571 6.26107 14.5591 5.76855 14.5591Z" fill="currentColor"/>
</svg>
