<svg width="16" height="16" viewBox="0 0 16 16" fill="none" xmlns="http://www.w3.org/2000/svg">
<path d="M14.0003 7.99935C14.0003 4.68564 11.314 1.99935 8.00033 1.99935C4.68662 1.99935 2.00033 4.68564 2.00033 7.99935C2.00033 11.3131 4.68662 13.9993 8.00033 13.9993C11.314 13.9993 14.0003 11.3131 14.0003 7.99935ZM8.00684 10.666C8.37503 10.666 8.6735 10.9645 8.6735 11.3327C8.6735 11.7009 8.37503 11.9993 8.00684 11.9993H8.00033C7.63214 11.9993 7.33366 11.7009 7.33366 11.3327C7.33366 10.9645 7.63214 10.666 8.00033 10.666H8.00684ZM6.59603 4.36393C7.13892 4.04494 7.7775 3.92805 8.39811 4.03451C9.0187 4.14102 9.5818 4.46425 9.9873 4.94596C10.3925 5.42744 10.6143 6.03674 10.6136 6.66602C10.6136 7.68659 9.857 8.36052 9.31673 8.7207C9.02631 8.91432 8.74072 9.05686 8.53027 9.15039C8.42424 9.19752 8.33491 9.23327 8.27051 9.25781C8.23836 9.27006 8.21206 9.27969 8.19303 9.28646C8.18354 9.28983 8.17546 9.29225 8.1696 9.29427C8.16677 9.29524 8.16437 9.29622 8.16244 9.29688C8.16148 9.2972 8.16055 9.29793 8.15983 9.29818H8.15788V9.29883C7.80863 9.41524 7.43126 9.22616 7.31478 8.87695C7.19837 8.52773 7.38684 8.15037 7.736 8.03385L7.74577 8.02995C7.75602 8.0263 7.77348 8.02026 7.7959 8.01172C7.84085 7.99459 7.90747 7.9677 7.98861 7.93164C8.15316 7.8585 8.36757 7.75105 8.57715 7.61133C9.03688 7.30484 9.28027 6.97877 9.28027 6.66602V6.66536C9.28074 6.35058 9.16979 6.04554 8.96712 5.80469C8.76434 5.5638 8.48255 5.40219 8.1722 5.34896C7.86191 5.29578 7.54258 5.35416 7.27116 5.51367C6.9998 5.67322 6.79359 5.92375 6.68913 6.2207C6.56691 6.56798 6.18617 6.75043 5.83887 6.62826C5.49167 6.506 5.30916 6.12526 5.43132 5.77799C5.64031 5.18398 6.05313 4.683 6.59603 4.36393ZM15.3337 7.99935C15.3337 12.0494 12.0504 15.3327 8.00033 15.3327C3.95024 15.3327 0.666992 12.0494 0.666992 7.99935C0.666992 3.94926 3.95024 0.666016 8.00033 0.666016C12.0504 0.666016 15.3337 3.94926 15.3337 7.99935Z" fill="#94A2B8"/>
</svg>
