<svg width="16" height="16" viewBox="0 0 16 16" fill="none" xmlns="http://www.w3.org/2000/svg">
<path d="M13.9998 8.00008C13.9998 4.68637 11.3135 2.00008 7.99984 2.00008C4.68613 2.00008 1.99984 4.68637 1.99984 8.00008C1.99984 11.3138 4.68613 14.0001 7.99984 14.0001C11.3135 14.0001 13.9998 11.3138 13.9998 8.00008ZM8.00635 10.0001C8.37454 10.0001 8.67301 10.2986 8.67301 10.6667C8.67301 11.0349 8.37454 11.3334 8.00635 11.3334H7.99984C7.63165 11.3334 7.33317 11.0349 7.33317 10.6667C7.33317 10.2986 7.63165 10.0001 7.99984 10.0001H8.00635ZM7.33317 8.00008V5.33341C7.33317 4.96522 7.63165 4.66675 7.99984 4.66675C8.36803 4.66675 8.6665 4.96522 8.6665 5.33341V8.00008C8.6665 8.36827 8.36803 8.66675 7.99984 8.66675C7.63165 8.66675 7.33317 8.36827 7.33317 8.00008ZM15.3332 8.00008C15.3332 12.0502 12.0499 15.3334 7.99984 15.3334C3.94975 15.3334 0.666504 12.0502 0.666504 8.00008C0.666504 3.94999 3.94975 0.666748 7.99984 0.666748C12.0499 0.666748 15.3332 3.94999 15.3332 8.00008Z" fill="currentColor"/>
</svg>
