<svg width="20" height="20" viewBox="0 0 20 20" fill="none" xmlns="http://www.w3.org/2000/svg">
<circle cx="10" cy="10" r="9.16667" fill="#94A2B8"/>
<path d="M12.9817 6.03741C13.2529 5.76618 13.6917 5.76618 13.9629 6.03741C14.2341 6.30864 14.2341 6.74738 13.9629 7.01861L10.9809 10.0006L13.9629 12.9827C14.2341 13.2539 14.2341 13.6927 13.9629 13.9639C13.6917 14.2351 13.2529 14.2351 12.9817 13.9639L9.99967 10.9818L7.01763 13.9639C6.7464 14.2351 6.30766 14.2351 6.03643 13.9639C5.7652 13.6927 5.7652 13.2539 6.03643 12.9827L9.01847 10.0006L6.03643 7.01861C5.7652 6.74738 5.7652 6.30864 6.03643 6.03741C6.30766 5.76618 6.7464 5.76618 7.01763 6.03741L9.99967 9.01945L12.9817 6.03741Z" fill="#FFFFFF"/>
</svg>
