<svg width="24" height="24" viewBox="0 0 24 24" fill="none" xmlns="http://www.w3.org/2000/svg">
<path d="M5.99992 20V6.41406L3.70696 8.70703C3.31643 9.09756 2.68342 9.09756 2.29289 8.70703C1.90237 8.31651 1.90237 7.68349 2.29289 7.29297L6.29289 3.29297L6.36907 3.22461C6.76184 2.90426 7.34084 2.92685 7.70696 3.29297L11.707 7.29297C12.0975 7.68349 12.0975 8.31651 11.707 8.70703C11.3164 9.09756 10.6834 9.09756 10.2929 8.70703L7.99992 6.41406V20C7.99992 20.5523 7.55221 21 6.99992 21C6.44764 21 5.99992 20.5523 5.99992 20ZM15.9999 4C15.9999 3.44772 16.4476 3 16.9999 3C17.5522 3 17.9999 3.44772 17.9999 4V17.5859L20.2929 15.293C20.6834 14.9024 21.3164 14.9024 21.707 15.293C22.0975 15.6835 22.0975 16.3165 21.707 16.707L17.707 20.707C17.3164 21.0976 16.6834 21.0976 16.2929 20.707L12.2929 16.707C11.9024 16.3165 11.9024 15.6835 12.2929 15.293C12.6834 14.9024 13.3164 14.9024 13.707 15.293L15.9999 17.5859V4Z" fill="currentColor"/>
</svg>
