<svg width="16" height="16" viewBox="0 0 16 16" fill="none" xmlns="http://www.w3.org/2000/svg">
<path d="M0.666748 11.9997V3.33301C0.666748 2.80257 0.877613 2.29402 1.25269 1.91895C1.62776 1.54387 2.13632 1.33301 2.66675 1.33301H5.28654L5.41089 1.33691C5.69897 1.35486 5.98015 1.43521 6.23511 1.57259C6.52656 1.72966 6.77501 1.95625 6.95711 2.23275H6.95646L7.49292 3.02637L7.49683 3.03288C7.55815 3.126 7.6419 3.20247 7.74032 3.25488C7.83866 3.30725 7.94857 3.33406 8.05998 3.33301H13.3334C13.8638 3.33301 14.3724 3.54387 14.7475 3.91895C15.1226 4.29402 15.3334 4.80257 15.3334 5.33301V11.9997C15.3334 12.5301 15.1226 13.0387 14.7475 13.4137C14.3724 13.7888 13.8638 13.9997 13.3334 13.9997H2.66675C2.13631 13.9997 1.62776 13.7888 1.25269 13.4137C0.877613 13.0387 0.666748 12.5301 0.666748 11.9997ZM2.00008 11.9997C2.00008 12.1765 2.07037 12.346 2.19539 12.471C2.32042 12.5961 2.48994 12.6663 2.66675 12.6663H13.3334C13.5102 12.6663 13.6797 12.5961 13.8048 12.471C13.9298 12.346 14.0001 12.1765 14.0001 11.9997V5.33301C14.0001 5.1562 13.9298 4.98668 13.8048 4.86165C13.6953 4.75223 13.5518 4.68472 13.3992 4.6696L13.3334 4.66634H8.06649V4.66569C7.73433 4.66782 7.40661 4.58813 7.11336 4.43197C6.82033 4.2759 6.57102 4.049 6.38745 3.77246L5.84774 2.97298L5.84318 2.96647C5.78252 2.87437 5.70001 2.79878 5.60295 2.74642C5.53016 2.7072 5.45079 2.68175 5.36922 2.67155L5.28654 2.66634H2.66675C2.48994 2.66634 2.32042 2.73663 2.19539 2.86165C2.07037 2.98668 2.00008 3.1562 2.00008 3.33301V11.9997Z" fill="currentColor"/>
</svg>
