<svg width="16" height="16" viewBox="0 0 16 16" fill="none" xmlns="http://www.w3.org/2000/svg">
<path d="M8.00016 1.33398C9.31871 1.33398 10.6076 1.72514 11.7039 2.45768C12.8002 3.19021 13.6551 4.2311 14.1597 5.44922C14.6643 6.66739 14.7958 8.00823 14.5386 9.30143C14.2813 10.5946 13.6467 11.7825 12.7144 12.7148C11.7821 13.6471 10.5941 14.2818 9.30094 14.5391C8.00774 14.7963 6.6669 14.6647 5.44873 14.1602C4.23061 13.6556 3.18972 12.8007 2.45719 11.7044C1.72465 10.6081 1.3335 9.31919 1.3335 8.00065C1.3335 7.63246 1.63197 7.33398 2.00016 7.33398C2.36835 7.33398 2.66683 7.63246 2.66683 8.00065C2.66683 9.05548 2.97988 10.0865 3.56592 10.9635C4.15193 11.8406 4.98467 12.5241 5.95915 12.9277C6.93364 13.3314 8.00601 13.4375 9.04053 13.2318C10.0751 13.026 11.0258 12.518 11.7716 11.7721C12.5175 11.0263 13.0255 10.0756 13.2313 9.04102C13.437 8.0065 13.3309 6.93412 12.9272 5.95964C12.5236 4.98516 11.8401 4.15241 10.9631 3.56641C10.0864 2.98061 9.05585 2.66758 8.00146 2.66732C6.49657 2.67329 5.05221 3.26065 3.97021 4.30664L3.60954 4.66732H5.3335C5.70169 4.66732 6.00016 4.96579 6.00016 5.33398C6.00016 5.70217 5.70169 6.00065 5.3335 6.00065H2.00016C1.63197 6.00065 1.3335 5.70217 1.3335 5.33398V2.00065C1.3335 1.63246 1.63197 1.33398 2.00016 1.33398C2.36835 1.33398 2.66683 1.63246 2.66683 2.00065V3.72461L3.03532 3.35612L3.29769 3.11393C4.59511 1.97534 6.26366 1.34053 7.99756 1.33398H8.00016ZM7.3335 4.66732C7.3335 4.29913 7.63197 4.00065 8.00016 4.00065C8.36835 4.00065 8.66683 4.29913 8.66683 4.66732V7.58854L10.965 8.73763C11.2943 8.90229 11.4278 9.30284 11.2632 9.63216C11.0985 9.96148 10.698 10.095 10.3687 9.93034L7.70199 8.59701C7.47613 8.48408 7.3335 8.25317 7.3335 8.00065V4.66732Z" fill="currentColor"/>
</svg>
