<svg width="20" height="20" viewBox="0 0 20 20" fill="none" xmlns="http://www.w3.org/2000/svg">
<path d="M14.0261 5.06929C14.0261 7.31669 12.2098 9.13857 9.9693 9.13857C7.72882 9.13857 5.91254 7.31669 5.91254 5.06929C5.91254 2.82188 7.72882 1 9.9693 1C12.2098 1 14.0261 2.82188 14.0261 5.06929Z" fill="#4B5E72"/>
<path fill-rule="evenodd" clip-rule="evenodd" d="M3.33073 15.3553C2.626 13.4771 3.06933 11.8095 4.45248 11.1365C4.87625 10.9303 5.06994 10.9226 9.96374 10.9176C14.9225 10.9125 15.0463 10.9173 15.5056 11.1339C16.1103 11.4189 16.6616 12.0691 16.8563 12.7266C17.0487 13.3769 17.0481 13.815 16.8533 14.6436C16.3712 16.6947 14.8797 18.1226 12.5512 18.762C11.3829 19.0828 8.58257 19.0785 7.38812 18.7541C5.30606 18.1885 3.97576 17.0741 3.33073 15.3553Z" fill="#4B5E72"/>
</svg>
