<svg width="20" height="24" viewBox="0 0 20 24" fill="none" xmlns="http://www.w3.org/2000/svg">
<path d="M10.0003 3.66699C11.6485 3.66699 13.2596 4.15594 14.63 5.07161C16.0004 5.98727 17.069 7.28838 17.6997 8.81104C18.3304 10.3338 18.4949 12.0098 18.1733 13.6263C17.8518 15.2427 17.0584 16.7277 15.8931 17.8931C14.7277 19.0584 13.2427 19.8518 11.6263 20.1733C10.0098 20.4949 8.33375 20.3304 6.81104 19.6997C5.28838 19.069 3.98727 18.0004 3.07161 16.63C2.15594 15.2596 1.66699 13.6485 1.66699 12.0003C1.66699 11.5401 2.04009 11.167 2.50033 11.167C2.96056 11.167 3.33366 11.5401 3.33366 12.0003C3.33366 13.3189 3.72498 14.6076 4.45752 15.7039C5.19003 16.8002 6.23096 17.6546 7.44906 18.1592C8.66717 18.6637 10.0076 18.7964 11.3008 18.5392C12.594 18.282 13.7823 17.647 14.7147 16.7147C15.647 15.7823 16.282 14.594 16.5392 13.3008C16.7964 12.0076 16.6637 10.6672 16.1592 9.44906C15.6546 8.23096 14.8002 7.19003 13.7039 6.45752C12.6081 5.72528 11.3199 5.33398 10.002 5.33366C8.12084 5.34112 6.31539 6.07532 4.96289 7.38281L4.51204 7.83366H6.66699C7.12723 7.83366 7.50033 8.20676 7.50033 8.66699C7.50033 9.12723 7.12723 9.50033 6.66699 9.50033H2.50033C2.04009 9.50033 1.66699 9.12723 1.66699 8.66699V4.50033C1.66699 4.04009 2.04009 3.66699 2.50033 3.66699C2.96056 3.66699 3.33366 4.04009 3.33366 4.50033V6.65527L3.79427 6.19466L4.12223 5.89193C5.74401 4.46868 7.82969 3.67517 9.99707 3.66699H10.0003ZM9.16699 7.83366C9.16699 7.37342 9.54009 7.00033 10.0003 7.00033C10.4606 7.00033 10.8337 7.37342 10.8337 7.83366V11.4852L13.7064 12.9215C14.118 13.1274 14.2849 13.6281 14.0791 14.0397C13.8733 14.4514 13.3726 14.6183 12.9609 14.4124L9.6276 12.7458C9.34528 12.6046 9.16699 12.316 9.16699 12.0003V7.83366Z" fill="white"/>
</svg>
