<svg width="16" height="16" viewBox="0 0 16 16" fill="none" xmlns="http://www.w3.org/2000/svg">
<path d="M13.333 7.99935C13.333 7.63116 13.0345 7.33268 12.6663 7.33268H3.33301C2.96482 7.33268 2.66634 7.63116 2.66634 7.99935V13.3327C2.66634 13.7009 2.96482 13.9993 3.33301 13.9993H12.6663C13.0345 13.9993 13.333 13.7009 13.333 13.3327V7.99935ZM6.66634 10.666C6.66634 9.92964 7.26329 9.33268 7.99967 9.33268C8.73605 9.33268 9.33301 9.92964 9.33301 10.666C9.33301 11.4024 8.73605 11.9993 7.99967 11.9993C7.26329 11.9993 6.66634 11.4024 6.66634 10.666ZM10.6663 4.66602C10.6663 3.95877 10.3852 3.2807 9.88509 2.7806C9.38499 2.2805 8.70692 1.99935 7.99967 1.99935C7.29243 1.99935 6.61435 2.2805 6.11426 2.7806C5.61416 3.2807 5.33301 3.95877 5.33301 4.66602V5.99935H10.6663V4.66602ZM11.9997 5.99935H12.6663C13.7709 5.99935 14.6663 6.89478 14.6663 7.99935V13.3327C14.6663 14.4373 13.7709 15.3327 12.6663 15.3327H3.33301C2.22844 15.3327 1.33301 14.4373 1.33301 13.3327V7.99935C1.33301 6.89478 2.22844 5.99935 3.33301 5.99935H3.99967V4.66602C3.99967 3.60515 4.4214 2.58804 5.17155 1.83789C5.92169 1.08775 6.93881 0.666016 7.99967 0.666016C9.06054 0.666016 10.0777 1.08775 10.8278 1.83789C11.5779 2.58804 11.9997 3.60515 11.9997 4.66602V5.99935Z" fill="#94A2B8"/>
</svg>
