<svg width="24" height="24" viewBox="0 0 24 24" fill="none" xmlns="http://www.w3.org/2000/svg">
<path d="M18.8185 6.56043C18.8186 6.19498 18.6729 5.84453 18.4146 5.58608C18.1563 5.32776 17.8063 5.18228 17.441 5.18214C17.0757 5.1821 16.725 5.32718 16.4666 5.58534L6.35477 15.6994C6.2669 15.7871 6.20176 15.8952 6.16537 16.0138L5.37081 18.6284L7.98977 17.8345L8.07633 17.8027C8.16093 17.7652 8.23828 17.7123 8.30419 17.6466L18.4146 7.53477L18.5063 7.43341C18.7072 7.1883 18.8184 6.88009 18.8185 6.56043ZM20.3337 6.56043C20.3336 7.27982 20.0656 7.97179 19.585 8.50245L19.4858 8.60603L9.37397 18.7194C9.11056 18.9819 8.78654 19.1763 8.4307 19.2846L5.13259 20.2848L5.13037 20.2856C4.93407 20.3445 4.72545 20.3488 4.52667 20.2989C4.32785 20.2489 4.14579 20.1463 4.00066 20.0015C3.85549 19.8565 3.75211 19.6743 3.70177 19.4755C3.65154 19.2768 3.65571 19.0682 3.71435 18.8718L3.71583 18.8688L4.71607 15.5714L4.71681 15.5692C4.82604 15.2131 5.02119 14.889 5.28499 14.6259L15.3946 4.51409C15.9373 3.97159 16.6737 3.6669 17.441 3.66699C18.2082 3.66713 18.9441 3.97224 19.4866 4.51483C20.0289 5.05743 20.3337 5.79322 20.3337 6.56043Z" fill="#94A2B8"/>
</svg>
