<svg width="20" height="20" viewBox="0 0 20 20" fill="none" xmlns="http://www.w3.org/2000/svg">
<path d="M9.4938 6.09652C9.4938 7.87571 8.05347 9.31804 6.27674 9.31804C4.50001 9.31804 3.05968 7.87571 3.05968 6.09652C3.05968 4.31732 4.50001 2.875 6.27674 2.875C8.05347 2.875 9.4938 4.31732 9.4938 6.09652Z" fill="#2ECCA1"/>
<path d="M17.5777 7.00515C17.5777 8.28252 16.5436 9.31804 15.268 9.31804C13.9924 9.31804 12.9583 8.28252 12.9583 7.00515C12.9583 5.72778 13.9924 4.69227 15.268 4.69227C16.5436 4.69227 17.5777 5.72778 17.5777 7.00515Z" fill="#2ECCA1"/>
<path fill-rule="evenodd" clip-rule="evenodd" d="M1.01228 14.2396C0.453415 12.7527 0.804982 11.4325 1.90183 10.8997C2.23789 10.7365 2.39149 10.7304 6.27233 10.7264C10.2046 10.7224 10.3029 10.7262 10.6671 10.8977C11.1466 11.1233 11.5838 11.638 11.7382 12.1586C11.8908 12.6734 11.8903 13.0202 11.7358 13.6762C11.3535 15.3 10.1707 16.4304 8.32423 16.9366C7.39772 17.1905 5.17704 17.1871 4.22983 16.9303C2.57873 16.4825 1.52379 15.6003 1.01228 14.2396Z" fill="#2ECCA1"/>
<path fill-rule="evenodd" clip-rule="evenodd" d="M12.2728 11.0662C12.924 11.9665 12.94 13.6976 12.3084 14.9454C12.1988 15.162 12.1369 15.3566 12.1709 15.3775C12.2049 15.3986 12.4737 15.4829 12.7681 15.5651C13.5204 15.7747 15.7118 15.7789 16.4794 15.5722C17.364 15.3341 17.9837 14.9839 18.4901 14.4363C19.4569 13.3904 19.5056 12.1018 18.6107 11.2428C18.0777 10.7311 18.0143 10.7223 14.873 10.7223H12.0239L12.2728 11.0662Z" fill="#2ECCA1"/>
</svg>
