<svg width="20" height="20" viewBox="0 0 20 20" fill="none" xmlns="http://www.w3.org/2000/svg">
<path d="M1.66699 17.4993V13.3327C1.66699 12.8724 2.04009 12.4993 2.50033 12.4993H6.66699C7.12723 12.4993 7.50033 12.8724 7.50033 13.3327C7.50033 13.7929 7.12723 14.166 6.66699 14.166H4.51204L4.96289 14.6169L5.22168 14.8553C6.54135 16.0133 8.23842 16.6582 10.002 16.6652C11.7695 16.6648 13.4648 15.9636 14.7147 14.7137C15.9649 13.4635 16.667 11.7675 16.667 9.99935C16.667 9.53911 17.0401 9.16602 17.5003 9.16602C17.9606 9.16602 18.3337 9.53911 18.3337 9.99935C18.3337 12.2095 17.4559 14.3293 15.8931 15.8921C14.3303 17.4549 12.2105 18.3327 10.0003 18.3327H9.99707C7.82969 18.3245 5.74401 17.531 4.12223 16.1077L3.79427 15.805L3.33366 15.3444V17.4993C3.33366 17.9596 2.96056 18.3327 2.50033 18.3327C2.04009 18.3327 1.66699 17.9596 1.66699 17.4993ZM1.66699 9.99935C1.66699 7.78921 2.54478 5.66941 4.10758 4.10661C5.67039 2.5438 7.79019 1.66602 10.0003 1.66602H10.0036L10.4357 1.67822C12.4469 1.78291 14.3647 2.56256 15.8784 3.89095L16.2064 4.19368L16.667 4.6543V2.49935C16.667 2.03911 17.0401 1.66602 17.5003 1.66602C17.9606 1.66602 18.3337 2.03911 18.3337 2.49935V6.66602C18.3337 7.12625 17.9606 7.49935 17.5003 7.49935H13.3337C12.8734 7.49935 12.5003 7.12625 12.5003 6.66602C12.5003 6.20578 12.8734 5.83268 13.3337 5.83268H15.4886L15.0378 5.38184L14.779 5.14339C13.4591 3.98519 11.7617 3.33949 9.99788 3.33268C8.23065 3.33333 6.53564 4.03533 5.28597 5.28499C4.03573 6.53524 3.33366 8.23124 3.33366 9.99935C3.33366 10.4596 2.96056 10.8327 2.50033 10.8327C2.04009 10.8327 1.66699 10.4596 1.66699 9.99935Z" fill="#FFFFFF"/>
</svg>
