<svg width="16" height="16" viewBox="0 0 16 16" fill="none" xmlns="http://www.w3.org/2000/svg">
<path d="M14.0091 0.721855C14.1621 0.668481 14.3254 0.653057 14.485 0.676933L14.5547 0.689954L14.6231 0.707532C14.7587 0.748052 14.884 0.817252 14.9909 0.910006L15.043 0.958183L15.0912 1.00962C15.1838 1.11645 15.2525 1.24196 15.293 1.37745L15.3112 1.44646L15.3242 1.51613C15.348 1.67539 15.3318 1.83811 15.2787 1.99074L15.2793 1.99139L10.946 14.6581V14.6587C10.8798 14.8516 10.7562 15.0198 10.5918 15.1405C10.4273 15.2612 10.2294 15.3286 10.0254 15.3338C9.82154 15.339 9.62092 15.2818 9.45052 15.1698C9.28006 15.0576 9.1476 14.8956 9.07162 14.7062L6.95183 9.41912L6.92383 9.35792C6.8926 9.29848 6.85238 9.2441 6.80469 9.19646C6.741 9.13289 6.66493 9.08278 6.58138 9.04933V9.04868L1.29427 6.92889C1.10501 6.85294 0.9435 6.72097 0.831383 6.55063C0.719257 6.38016 0.662096 6.17908 0.667321 5.97511C0.672571 5.77118 0.739999 5.57383 0.86068 5.40936L0.907555 5.34946C1.02326 5.21462 1.17352 5.11312 1.34245 5.05519V5.05454L14.0091 0.721204V0.721855ZM8.13737 8.80454C8.15569 8.8428 8.17292 8.88162 8.18881 8.92107L8.18946 8.92238L9.97461 13.3762L13.3066 3.63592L8.13737 8.80454ZM2.6237 6.02524L7.07618 7.81105H7.07683C7.1165 7.82693 7.15554 7.84479 7.19401 7.86313L12.3646 2.69256L2.6237 6.02524Z" fill="#94A2B8"/>
</svg>
