<svg width="16" height="16" viewBox="0 0 16 16" fill="none" xmlns="http://www.w3.org/2000/svg">
<path d="M12.1485 4.36292C10.774 4.36292 9.16809 3.55297 8.06572 2.56924C8.04751 2.55343 8.02422 2.54497 8.00033 2.54497C7.97633 2.54497 7.95317 2.55389 7.93493 2.56983L7.93435 2.56924C6.83844 3.54632 5.22704 4.36292 3.85218 4.36292V8.6048L3.85739 8.85453C3.91014 10.0819 4.35381 10.9917 5.02926 11.6992C5.76593 12.4707 6.80539 13.0285 7.99801 13.4497C8.00232 13.4512 8.00704 13.4522 8.01132 13.4538C9.19951 13.0298 10.2361 12.4719 10.9714 11.7004C11.6916 10.9448 12.1485 9.95968 12.1485 8.6048V4.36292ZM9.35912 6.3584C9.59051 6.12195 9.9657 6.12195 10.1971 6.3584C10.4285 6.59505 10.4285 6.97924 10.1971 7.21589L7.82671 9.63982C7.59533 9.87628 7.22014 9.87628 6.98875 9.63982L5.80357 8.42786C5.57214 8.19121 5.57214 7.80702 5.80357 7.57037C6.03495 7.33392 6.41014 7.33392 6.64153 7.57037L7.40773 8.35389L9.35912 6.3584ZM13.3337 8.6048C13.3337 10.2798 12.7535 11.5676 11.8203 12.5466C10.9033 13.5087 9.6717 14.1463 8.39674 14.6007L8.39211 14.6025C8.1384 14.6904 7.8633 14.6872 7.61144 14.5948V14.5954C7.60795 14.5942 7.60451 14.5925 7.60102 14.5912C7.60011 14.5909 7.59904 14.591 7.59813 14.5907V14.5901C6.3245 14.1389 5.09636 13.5042 4.18146 12.5461C3.3057 11.6288 2.74117 10.4399 2.67394 8.91489L2.66699 8.6048V4.36292C2.66706 4.04159 2.79201 3.73325 3.01421 3.50602C3.23647 3.27882 3.53791 3.15096 3.85218 3.15096L4.04257 3.14385C5.01275 3.07082 6.25427 2.4617 7.16005 1.65257L7.16526 1.64843C7.3981 1.44501 7.69408 1.33301 8.00033 1.33301C8.30657 1.33301 8.60255 1.44501 8.83539 1.64843L8.8406 1.65257C9.81217 2.52119 11.1546 3.15096 12.1485 3.15096C12.4627 3.15096 12.7642 3.27882 12.9864 3.50602C13.2086 3.73325 13.3336 4.04159 13.3337 4.36292V8.6048Z" fill="#24B28C"/>
</svg>
