<svg width="20" height="24" viewBox="0 0 20 24" fill="none" xmlns="http://www.w3.org/2000/svg">
<path d="M9.16649 19.4995V14.8446L7.25568 16.7554C6.93025 17.0808 6.40273 17.0808 6.0773 16.7554C5.75206 16.43 5.75193 15.9024 6.0773 15.577L9.41063 12.2437C9.736 11.9183 10.2636 11.9185 10.589 12.2437L13.9223 15.577C14.2478 15.9025 14.2478 16.43 13.9223 16.7554C13.5969 17.0808 13.0694 17.0808 12.744 16.7554L10.8332 14.8446V19.4995C10.8332 19.9598 10.4601 20.3329 9.99982 20.3329C9.53968 20.3328 9.16649 19.9597 9.16649 19.4995ZM6.97492 3.68981C7.98334 3.60984 8.99717 3.76039 9.93879 4.13008C10.8803 4.49977 11.7257 5.07898 12.4103 5.8236C12.9519 6.41281 13.3798 7.09427 13.679 7.83288H14.5832C15.5665 7.83277 16.5244 8.14881 17.3143 8.73457C18.104 9.32025 18.6841 10.1448 18.9695 11.0856C19.255 12.0267 19.2301 13.0349 18.8987 13.9608C18.5674 14.8867 17.9473 15.6819 17.1295 16.2281C16.7469 16.4835 16.2296 16.3803 15.9739 15.9978C15.7183 15.615 15.8215 15.0978 16.2043 14.8422C16.7246 14.4946 17.1189 13.9884 17.3297 13.3993C17.5406 12.8101 17.5569 12.1687 17.3753 11.5699C17.1937 10.971 16.8241 10.446 16.3214 10.0733C15.8188 9.70054 15.2089 9.49948 14.5832 9.49955H13.0915C12.7232 9.49941 12.3985 9.25757 12.2931 8.90466C12.0761 8.17782 11.6965 7.50997 11.1831 6.95153C10.6696 6.39301 10.0355 5.95845 9.32925 5.68119C8.62311 5.40399 7.86298 5.29081 7.10676 5.35078C6.35051 5.41079 5.61764 5.64197 4.96402 6.02705C4.31034 6.41217 3.75299 6.94162 3.33397 7.57409C2.91505 8.20648 2.64515 8.9258 2.5454 9.67777C2.44564 10.4299 2.51894 11.1951 2.75861 11.9149C2.99829 12.6347 3.39822 13.2909 3.92886 13.833C4.25067 14.162 4.24551 14.6895 3.91665 15.0114C3.58779 15.3333 3.0602 15.3272 2.73827 14.9984C2.03069 14.2755 1.49614 13.4012 1.17658 12.4414C0.857033 11.4817 0.760389 10.4616 0.893377 9.45886C1.02637 8.45613 1.38618 7.49694 1.94481 6.65368C2.50351 5.81038 3.2469 5.105 4.11847 4.59151C4.98992 4.07812 5.96666 3.76982 6.97492 3.68981Z" fill="currentColor"/>
</svg>
