<svg width="20" height="20" viewBox="0 0 20 20" fill="currentColor" xmlns="http://www.w3.org/2000/svg">
<path d="M5.59894 1.91683C7.22181 1.02861 9.07555 0.651987 10.9163 0.836917C11.3743 0.882934 11.7086 1.29207 11.6626 1.75C11.6165 2.20782 11.2074 2.54146 10.7495 2.49545C9.24346 2.34419 7.72666 2.65252 6.39891 3.37923C5.07115 4.10602 3.99397 5.21754 3.30972 6.56771C2.6255 7.91791 2.36605 9.44381 2.56509 10.9443C2.76415 12.4449 3.41282 13.85 4.42544 14.9751C5.43809 16.1003 6.76748 16.8926 8.23891 17.248C9.71033 17.6035 11.2546 17.5052 12.6693 16.9665C14.0838 16.4277 15.3024 15.4739 16.1645 14.2297C17.0259 12.9865 17.4916 11.5119 17.5 9.99951V9.16618C17.5001 8.70607 17.8732 8.33285 18.3333 8.33285C18.7934 8.3329 19.1665 8.7061 19.1666 9.16618V10.0036C19.1574 11.8536 18.5886 13.6579 17.535 15.1786C16.4812 16.6993 14.9915 17.8656 13.2625 18.5241C11.5335 19.1826 9.64588 19.3028 7.84748 18.8683C6.0491 18.4339 4.42451 17.4652 3.18683 16.09C1.94915 14.7148 1.15635 12.9973 0.913068 11.1633C0.66981 9.32919 0.987355 7.46442 1.82371 5.81413C2.66009 4.16389 3.97603 2.80509 5.59894 1.91683ZM12.6676 11.1641V11.1657C12.9438 10.798 13.465 10.7238 13.833 10.9997C14.1782 11.2586 14.2659 11.7341 14.0478 12.0959L13.9998 12.1667L13.999 12.1675L13.9982 12.1691C13.9976 12.1699 13.9965 12.1706 13.9958 12.1716C13.9941 12.1737 13.9923 12.1767 13.9901 12.1797C13.9854 12.1857 13.9793 12.1934 13.9722 12.2025C13.9578 12.2206 13.938 12.245 13.9136 12.2741C13.8647 12.3323 13.7954 12.4112 13.7069 12.5036C13.5301 12.688 13.2717 12.9305 12.9378 13.1733C12.2729 13.6569 11.2712 14.1662 9.99998 14.1662C8.72875 14.1662 7.72711 13.6569 7.06216 13.1733C6.72825 12.9305 6.46984 12.688 6.29311 12.5036C6.20461 12.4112 6.13526 12.3323 6.08641 12.2741C6.062 12.245 6.04217 12.2206 6.02781 12.2025C6.02063 12.1934 6.01455 12.1857 6.00991 12.1797C6.00759 12.1767 6.0059 12.1738 6.00421 12.1716C6.00346 12.1706 6.0024 12.1699 6.00177 12.1691L6.00096 12.1675L6.00014 12.1667C5.72406 11.7986 5.79817 11.2759 6.16616 10.9997C6.53345 10.7242 7.05405 10.7982 7.33071 11.1641V11.1624C7.33093 11.1627 7.3323 11.165 7.33478 11.1681C7.3398 11.1745 7.34893 11.1862 7.36245 11.2023C7.39008 11.2352 7.43488 11.2867 7.49591 11.3504C7.61864 11.4785 7.80322 11.652 8.04198 11.8257C8.52286 12.1754 9.18793 12.4995 9.99998 12.4995C10.812 12.4995 11.4771 12.1754 11.958 11.8257C12.1967 11.6521 12.3813 11.4785 12.5041 11.3504C12.5651 11.2868 12.6099 11.2352 12.6375 11.2023C12.6511 11.1862 12.6602 11.1744 12.6652 11.1681C12.6663 11.1667 12.667 11.1649 12.6676 11.1641ZM7.50812 6.66618C7.96829 6.66618 8.34134 7.03937 8.34145 7.49951C8.34145 7.95975 7.96836 8.33285 7.50812 8.33285H7.49998C7.03974 8.33285 6.66665 7.95975 6.66665 7.49951C6.66676 7.03937 7.03981 6.66618 7.49998 6.66618H7.50812ZM12.5081 6.66618C12.9683 6.66618 13.3413 7.03937 13.3415 7.49951C13.3415 7.95975 12.9684 8.33285 12.5081 8.33285H12.5C12.0397 8.33285 11.6666 7.95975 11.6666 7.49951C11.6668 7.03937 12.0398 6.66618 12.5 6.66618H12.5081ZM15 6.66618V4.99951H13.3333C12.8731 4.99951 12.5 4.62642 12.5 4.16618C12.5001 3.70604 12.8731 3.33285 13.3333 3.33285H15V1.66618C15.0001 1.20604 15.3731 0.832847 15.8333 0.832847C16.2934 0.832902 16.6665 1.20607 16.6666 1.66618V3.33285H18.3333C18.7934 3.3329 19.1665 3.70607 19.1666 4.16618C19.1666 4.62638 18.7935 4.99946 18.3333 4.99951H16.6666V6.66618C16.6666 7.12638 16.2935 7.49946 15.8333 7.49951C15.3731 7.49951 15 7.12642 15 6.66618Z" fill="currentColor"/>
</svg>
