<svg width="24" height="24" viewBox="0 0 24 24" fill="none" xmlns="http://www.w3.org/2000/svg">
<path d="M5.99992 4C5.99992 3.44772 6.44764 3 6.99992 3C7.55221 3 7.99992 3.44772 7.99992 4V17.5859L10.2929 15.293C10.6834 14.9024 11.3164 14.9024 11.707 15.293C12.0975 15.6835 12.0975 16.3165 11.707 16.707L7.70696 20.707C7.31643 21.0976 6.68342 21.0976 6.29289 20.707L2.29289 16.707C1.90237 16.3165 1.90237 15.6835 2.29289 15.293C2.68342 14.9024 3.31643 14.9024 3.70696 15.293L5.99992 17.5859V4ZM14.9999 11C15.5522 11 15.9999 11.4477 15.9999 12C15.9999 12.5523 15.5522 13 14.9999 13H10.9999C10.4476 13 9.99992 12.5523 9.99992 12C9.99992 11.4477 10.4476 11 10.9999 11H14.9999ZM17.9999 7C18.5522 7 18.9999 7.44772 18.9999 8C18.9999 8.55228 18.5522 9 17.9999 9H10.9999C10.4476 9 9.99992 8.55228 9.99992 8C9.99992 7.44772 10.4476 7 10.9999 7H17.9999ZM20.9999 3C21.5522 3 21.9999 3.44772 21.9999 4C21.9999 4.55228 21.5522 5 20.9999 5H10.9999C10.4476 5 9.99992 4.55228 9.99992 4C9.99992 3.44772 10.4476 3 10.9999 3H20.9999Z" fill="currentColor"/>
</svg>
