<svg width="16" height="16" viewBox="0 0 16 16" fill="none" xmlns="http://www.w3.org/2000/svg">
<g clip-path="url(#clip0_4635_4866)">
<path d="M14.3334 8.59961C14.3334 9.15189 13.8857 9.59961 13.3334 9.59961C12.7811 9.59961 12.3334 9.15189 12.3334 8.59961V7.41406L8.94084 10.8066C8.55032 11.1972 7.9173 11.1972 7.52678 10.8066L5.23381 8.51367L2.04045 11.707C1.64993 12.0976 1.01691 12.0976 0.626389 11.707C0.235865 11.3165 0.235865 10.6835 0.626389 10.293L4.52678 6.39258L4.60197 6.32422C4.99475 6.00373 5.57468 6.02641 5.94084 6.39258L8.23381 8.68555L10.9194 6H9.73381C9.18153 6 8.73381 5.55228 8.73381 5C8.73381 4.44772 9.18153 4 9.73381 4H13.3334C13.8857 4 14.3334 4.44772 14.3334 5V8.59961Z" fill="currentColor"/>
</g>
<defs>
<clipPath id="clip0_4635_4866">
<rect width="16" height="16" fill="white"/>
</clipPath>
</defs>
</svg>
