<svg width="20" height="20" viewBox="0 0 20 20" fill="none" xmlns="http://www.w3.org/2000/svg">
<path d="M15.8333 12.0833C15.8333 11.5909 15.736 11.1034 15.5476 10.6485C15.3592 10.1936 15.0829 9.78012 14.7346 9.4319C14.3864 9.08368 13.973 8.80737 13.518 8.61892C13.0631 8.43052 12.5757 8.33327 12.0833 8.33327H5.34499L8.08913 11.0774C8.41457 11.4028 8.41457 11.9304 8.08913 12.2558C7.76369 12.5812 7.23618 12.5812 6.91074 12.2558L2.74408 8.08913C2.41864 7.76369 2.41864 7.23618 2.74408 6.91074L6.91074 2.74408C7.23618 2.41864 7.76369 2.41864 8.08913 2.74408C8.41457 3.06951 8.41457 3.59703 8.08913 3.92246L5.34499 6.6666H12.0833C12.7946 6.6666 13.4988 6.80699 14.156 7.0792C14.8132 7.35141 15.4109 7.74972 15.9138 8.2527C16.4168 8.75569 16.8151 9.35334 17.0873 10.0105C17.3596 10.6677 17.4999 11.3719 17.4999 12.0833L17.4934 12.3494C17.4629 12.9698 17.3256 13.5809 17.0873 14.156C16.8151 14.8132 16.4168 15.4109 15.9138 15.9138C15.4109 16.4168 14.8132 16.8151 14.156 17.0873C13.4988 17.3596 12.7946 17.4999 12.0833 17.4999H9.1666C8.70637 17.4999 8.33327 17.1268 8.33327 16.6666C8.33327 16.2064 8.70637 15.8333 9.1666 15.8333H12.0833C12.5757 15.8333 13.0631 15.736 13.518 15.5476C13.973 15.3592 14.3864 15.0829 14.7346 14.7346C15.0829 14.3864 15.3592 13.973 15.5476 13.518C15.7124 13.1201 15.8072 12.6973 15.8284 12.268L15.8333 12.0833Z" fill="#4B5E72"/>
</svg>
