<svg width="9" height="13" viewBox="0 0 9 13" fill="none" xmlns="http://www.w3.org/2000/svg">
<path d="M4.34229 0C4.43083 0 4.5166 0.0193685 4.59961 0.0581055C4.68815 0.0913086 4.76839 0.14388 4.84033 0.21582L8.48438 3.70215C8.53971 3.76302 8.58398 3.83219 8.61719 3.90967C8.65592 3.98714 8.67529 4.08122 8.67529 4.19189C8.67529 4.38558 8.60889 4.54883 8.47607 4.68164C8.3488 4.81445 8.18831 4.88086 7.99463 4.88086C7.91162 4.88086 7.82861 4.86702 7.74561 4.83936C7.6626 4.80615 7.57959 4.75358 7.49658 4.68164L4.34229 1.58545L1.17969 4.68164C1.10221 4.75911 1.01921 4.81169 0.930664 4.83936C0.847656 4.86702 0.767415 4.88086 0.689941 4.88086C0.490723 4.88086 0.324707 4.81445 0.191895 4.68164C0.0646159 4.54883 0.000976562 4.38558 0.000976562 4.19189C0.000976562 4.08122 0.0175781 3.98714 0.0507812 3.90967C0.0895182 3.83219 0.136556 3.76302 0.191895 3.70215L3.84424 0.21582C3.91618 0.14388 3.99365 0.0913086 4.07666 0.0581055C4.15967 0.0193685 4.24821 0 4.34229 0ZM4.34229 12.6504C4.24821 12.6504 4.15967 12.631 4.07666 12.5923C3.99365 12.5591 3.91618 12.5065 3.84424 12.4346L0.191895 8.94824C0.136556 8.88737 0.0895182 8.8182 0.0507812 8.74072C0.0175781 8.66325 0.000976562 8.56917 0.000976562 8.4585C0.000976562 8.26481 0.0646159 8.10156 0.191895 7.96875C0.324707 7.83594 0.490723 7.76953 0.689941 7.76953C0.767415 7.76953 0.847656 7.78337 0.930664 7.81104C1.01921 7.8387 1.10221 7.89128 1.17969 7.96875L4.34229 11.0649L7.49658 7.96875C7.57959 7.89681 7.6626 7.84701 7.74561 7.81934C7.82861 7.78613 7.91162 7.76953 7.99463 7.76953C8.18831 7.76953 8.3488 7.83594 8.47607 7.96875C8.60889 8.10156 8.67529 8.26481 8.67529 8.4585C8.67529 8.56917 8.65592 8.66325 8.61719 8.74072C8.58398 8.8182 8.53971 8.88737 8.48438 8.94824L4.84033 12.4346C4.76839 12.5065 4.68815 12.5591 4.59961 12.5923C4.5166 12.631 4.43083 12.6504 4.34229 12.6504Z" fill="currentColor"/>
</svg>
