<svg width="16" height="16" viewBox="0 0 16 16" fill="none" xmlns="http://www.w3.org/2000/svg">
<path d="M11.9997 8.66732C11.8229 8.66732 11.6533 8.73761 11.5283 8.86263C11.4033 8.98765 11.333 9.15717 11.333 9.33398C11.333 9.51079 11.4033 9.68031 11.5283 9.80534C11.6533 9.93036 11.8229 10.0007 11.9997 10.0007H13.9997V8.66732H11.9997ZM3.33301 5.33398C3.10339 5.33398 2.87874 5.29201 2.66634 5.2168V12.6673C2.66634 12.8441 2.73663 13.0136 2.86165 13.1387C2.98668 13.2637 3.1562 13.334 3.33301 13.334H13.333V11.334H11.9997C11.4692 11.334 10.9607 11.1231 10.5856 10.748C10.2105 10.373 9.99967 9.86442 9.99967 9.33398C9.99967 8.80355 10.2105 8.29499 10.5856 7.91992C10.9607 7.54485 11.4692 7.33398 11.9997 7.33398H13.333V5.33398H3.33301ZM3.33301 2.66732C3.1562 2.66732 2.98668 2.73761 2.86165 2.86263C2.73663 2.98765 2.66634 3.15717 2.66634 3.33398C2.66634 3.5108 2.73663 3.68031 2.86165 3.80534C2.98668 3.93036 3.1562 4.00065 3.33301 4.00065H11.9997V2.66732H3.33301ZM13.333 4.00065C13.6866 4.00065 14.0257 4.14123 14.2757 4.39128C14.5258 4.64133 14.6663 4.98036 14.6663 5.33398V7.51367C14.7662 7.57139 14.8594 7.64162 14.9424 7.72461C15.1924 7.97466 15.333 8.3137 15.333 8.66732V10.0007C15.333 10.3543 15.1924 10.6933 14.9424 10.9434C14.8595 11.0263 14.7661 11.096 14.6663 11.1536V13.334C14.6663 13.6876 14.5258 14.0266 14.2757 14.2767C14.0257 14.5267 13.6866 14.6673 13.333 14.6673H3.33301C2.80257 14.6673 2.29402 14.4565 1.91895 14.0814C1.54387 13.7063 1.33301 13.1978 1.33301 12.6673V3.33398C1.33301 2.80355 1.54387 2.29499 1.91895 1.91992C2.29402 1.54485 2.80257 1.33398 3.33301 1.33398H11.9997C12.3533 1.33398 12.6923 1.47456 12.9424 1.72461C13.1924 1.97466 13.333 2.3137 13.333 2.66732V4.00065Z" fill="#94A2B8"/>
</svg>
